# xmcd CD database file
#
# Track frame offsets:
#	150
#	20497
#	40623
#	56882
#	95182
#	115803
#	133398
#
# Disc length: 2260 seconds
#
# Revision: 0
# Processed by: cddbd v1.5.2PL0 Copyright (c) Steve Scherf et al.
# Submitted via: CDex 1.70beta2
#
DISCID=6308d207
DTITLE=Ruth Brown - Miss Rhythm
DYEAR=2000
DGENRE=Jazz
TTITLE0=I'll never fall in love again
TTITLE1=What'll I do
TTITLE2=Everybodies talking
TTITLE3=Touch me in the morning
TTITLE4=After the lovin'
TTITLE5=The way you look tonight
TTITLE6=The best thing that ever happened
EXTD=YEAR: 2000
EXTT0=
EXTT1=
EXTT2=
EXTT3=
EXTT4=
EXTT5=
EXTT6=
PLAYORDER=
